<?xml version="1.0" encoding="UTF-8" standalone="no"?>
<!DOCTYPE svg PUBLIC "-//W3C//DTD SVG 1.1//EN" "http://www.w3.org/Graphics/SVG/1.1/DTD/svg11.dtd">
<svg width="100%" height="100%" viewBox="0 0 7013 7838" version="1.1" xmlns="http://www.w3.org/2000/svg" xmlns:xlink="http://www.w3.org/1999/xlink" xml:space="preserve" xmlns:serif="http://www.serif.com/" style="fill-rule:evenodd;clip-rule:evenodd;stroke-linejoin:round;stroke-miterlimit:2;">
    <g transform="matrix(4.16667,0,0,4.16667,0,0)">
        <path d="M1072.37,560.111C973.688,560.111 893.405,640.393 893.405,739.074C893.405,837.755 973.688,918.037 1072.37,918.037C1171.05,918.037 1251.33,837.755 1251.33,739.074C1251.33,640.393 1171.05,560.111 1072.37,560.111ZM1072.37,948.881C956.682,948.881 862.563,854.761 862.563,739.074C862.563,623.387 956.682,529.268 1072.37,529.268C1188.06,529.268 1282.17,623.387 1282.17,739.074C1282.17,854.761 1188.06,948.881 1072.37,948.881Z" style="fill:rgb(3,4,4);fill-rule:nonzero;"/>
        <path d="M570.225,560.111C471.544,560.111 391.262,640.393 391.262,739.074C391.262,837.755 471.544,918.037 570.225,918.037C668.904,918.037 749.186,837.755 749.186,739.074C749.186,640.393 668.904,560.111 570.225,560.111ZM570.225,948.881C454.538,948.881 360.419,854.761 360.419,739.074C360.419,623.387 454.538,529.268 570.225,529.268C685.912,529.268 780.029,623.387 780.029,739.074C780.029,854.761 685.912,948.881 570.225,948.881Z" style="fill:rgb(3,4,4);fill-rule:nonzero;"/>
        <path d="M859.472,752.832L779.419,752.832C770.901,752.832 763.997,745.928 763.997,737.41C763.997,728.893 770.901,721.989 779.419,721.989L859.472,721.989C867.989,721.989 874.894,728.893 874.894,737.41C874.894,745.928 867.989,752.832 859.472,752.832Z" style="fill:rgb(3,4,4);fill-rule:nonzero;"/>
        <path d="M1326.1,705.344C1324.52,705.344 1322.92,705.063 1321.38,704.483C1316.39,702.596 1313,697.921 1312.75,692.59C1312.73,692.043 1310.02,636.852 1294.62,581.514C1270.33,494.259 1234,473.104 1207.8,470.722C1155.63,465.975 1109.44,474.308 1050.96,484.855C992.935,495.32 927.168,507.18 836.729,509.609C788.305,510.913 734.592,499.821 677.744,488.081C581.141,468.131 481.249,447.5 415.715,494.157C374.464,523.528 349.275,577.18 338.71,658.181C337.9,664.389 332.89,669.201 326.655,669.764C320.447,670.338 314.632,666.484 312.726,660.52C311.807,657.647 290.112,589.147 279.757,503.007C265.651,385.664 279.321,296.667 320.385,238.486C353.209,191.979 402.941,166.539 468.279,162.803C478.662,147.121 509.609,107.504 574.344,75.277C621.116,51.99 676.174,37.247 737.989,31.456C814.547,24.283 901.837,30.895 997.444,51.106C1102.73,73.362 1191.19,116.56 1260.39,179.502C1320.34,234.042 1364.31,302.932 1387.53,378.726C1406.08,439.263 1410.86,501.961 1401.36,560.042C1391.92,617.726 1369.23,666.559 1335.72,701.263C1333.16,703.92 1329.66,705.344 1326.1,705.344Z" style="fill:rgb(3,4,4);fill-rule:nonzero;"/>
        <path d="M1603.14,971.988C1603.14,971.988 1603.14,882.308 1513.46,882.308L167.106,882.308C167.106,882.308 77.426,882.308 77.426,971.988L77.426,1630.5C77.426,1630.5 77.426,1720.18 167.106,1720.18L1513.46,1720.18C1513.46,1720.18 1603.14,1720.18 1603.14,1630.5L1603.14,971.988Z" style="fill:white;fill-rule:nonzero;"/>
        <path d="M167.106,896.697C166.967,896.699 147.238,896.96 128.321,906.707C104.782,918.834 92.847,940.45 92.847,970.955L92.847,1629.47C92.849,1629.61 93.11,1649.34 102.858,1668.26C114.985,1691.8 136.601,1703.73 167.106,1703.73L1513.46,1703.73C1513.6,1703.73 1533.33,1703.47 1552.24,1693.72C1575.78,1681.59 1587.72,1659.98 1587.72,1629.47L1587.72,970.997C1587.71,970.324 1587.33,950.851 1577.71,932.17C1565.58,908.631 1543.96,896.697 1513.46,896.697L167.106,896.697ZM1513.46,1734.57L167.106,1734.57C112.903,1734.57 87.014,1705.55 74.842,1681.21C62.15,1655.82 62.004,1630.54 62.004,1629.47L62.004,970.955C62.004,916.752 91.023,890.864 115.369,878.692C140.754,865.999 166.042,865.854 167.106,865.854L1513.46,865.854C1567.66,865.854 1593.55,894.873 1605.72,919.219C1618.41,944.603 1618.56,969.89 1618.56,970.955L1618.56,1629.47C1618.56,1683.68 1589.54,1709.56 1565.2,1721.74C1539.81,1734.43 1514.52,1734.57 1513.46,1734.57Z" style="fill:rgb(3,4,4);fill-rule:nonzero;"/>
        <path d="M236.185,1012.03L236.185,1400.37L322.729,1400.37C385.971,1400.37 420.366,1365.97 420.366,1302.18L420.366,1288.86C420.366,1237.82 404.834,1208.98 368.219,1197.88L368.219,1196.77C399.287,1186.23 412.046,1160.71 412.046,1117.44L412.046,1110.23C412.046,1046.43 379.314,1012.03 318.291,1012.03L236.185,1012.03ZM294.991,1066.4L316.072,1066.4C341.59,1066.4 353.24,1080.82 353.24,1112.45L353.24,1125.21C353.24,1157.94 341.59,1172.36 313.298,1172.36L294.991,1172.36L294.991,1066.4ZM294.991,1226.73L317.736,1226.73C348.802,1226.73 361.562,1242.26 361.562,1276.66L361.562,1298.29C361.562,1331.02 348.802,1346 320.51,1346L294.991,1346L294.991,1226.73ZM594.56,1400.37L656.694,1400.37L602.881,1223.4C630.064,1207.86 644.488,1179.02 644.488,1137.97L644.488,1110.23C644.488,1046.43 610.093,1012.03 546.849,1012.03L461.971,1012.03L461.971,1400.37L520.776,1400.37L520.776,1236.16L547.96,1236.16L594.56,1400.37ZM520.776,1066.4L544.63,1066.4C572.924,1066.4 585.684,1081.38 585.684,1114.11L585.684,1134.08C585.684,1166.81 572.924,1181.79 544.63,1181.79L520.776,1181.79L520.776,1066.4ZM887.477,1400.37L820.35,1012.03L745.456,1012.03L678.329,1400.37L737.135,1400.37L749.894,1312.16L814.801,1312.16L827.562,1400.37L887.477,1400.37ZM781.516,1095.25L783.18,1095.25L807.036,1258.9L757.661,1258.9L781.516,1095.25ZM988.44,1012.03L929.634,1012.03L929.634,1400.37L988.44,1400.37L988.44,1012.03ZM1243.07,1400.37L1243.07,1012.03L1187.59,1012.03L1187.59,1243.37L1186.48,1243.37L1117.14,1012.03L1051.67,1012.03L1051.67,1400.37L1107.15,1400.37L1107.15,1142.96L1108.26,1142.96L1185.38,1400.37L1243.07,1400.37ZM1408.95,1225.06L1489.39,1012.03L1428.36,1012.03L1381.21,1149.62L1380.1,1149.62L1330.72,1012.03L1268.59,1012.03L1350.14,1224.51L1350.14,1400.37L1408.95,1400.37L1408.95,1225.06Z" style="fill:rgb(47,110,168);fill-rule:nonzero;"/>
        <path d="M319.737,1595.99L319.737,1570.36L264.828,1570.36L264.828,1446.09L235.937,1446.09L235.937,1595.99L319.737,1595.99ZM482.72,1446.09L453.827,1446.09L453.827,1595.99L482.72,1595.99L482.72,1446.09ZM756.659,1446.09L726.462,1446.09L687.359,1559.49L647.764,1445.78L615.763,1445.78L671.656,1596.5L700.765,1596.5L756.659,1446.09ZM920.024,1446.09L891.13,1446.09L891.13,1595.99L920.024,1595.99L920.024,1446.09ZM1186.79,1595.99L1186.79,1446.09L1160.07,1446.09L1160.07,1544.29L1092.73,1446.09L1065.57,1446.09L1065.57,1595.99L1092.29,1595.99L1092.29,1492.8L1162.9,1595.99L1186.79,1595.99ZM1451.82,1583.61L1451.82,1512.14L1395.07,1512.14L1395.13,1535.16L1425.54,1535.16L1425.54,1568.4C1418.15,1572.31 1410.77,1574.48 1400.34,1574.48C1370.14,1574.48 1354.93,1553.19 1354.93,1521.04C1354.93,1489.11 1369.71,1467.82 1399.04,1467.82C1415.55,1467.82 1429.01,1473.9 1440.31,1481.94L1444.44,1455.22C1432.49,1448.05 1417.93,1443.27 1398.82,1443.27C1353.2,1443.27 1325.61,1474.77 1325.61,1521.26C1325.61,1567.53 1351.68,1598.81 1399.25,1598.81C1419.24,1598.81 1437.7,1592.73 1451.82,1583.61Z" style="fill:rgb(3,4,4);fill-rule:nonzero;"/>
        <path d="M166.928,1765.3C166.928,1765.3 166.928,1854.16 255.789,1854.16L1424.77,1854.16C1424.77,1854.16 1513.64,1854.16 1513.64,1765.3" style="fill:rgb(3,4,4);fill-rule:nonzero;"/>
        <path d="M588.736,819.808C574.844,819.808 563.541,808.505 563.541,794.613C563.541,780.719 574.844,769.415 588.736,769.415C602.63,769.415 613.934,780.719 613.934,794.613C613.934,808.505 602.63,819.808 588.736,819.808Z" style="fill:rgb(3,4,4);fill-rule:nonzero;"/>
        <path d="M1053.86,819.808C1039.96,819.808 1028.66,808.505 1028.66,794.613C1028.66,780.719 1039.96,769.415 1053.86,769.415C1067.75,769.415 1079.05,780.719 1079.05,794.613C1079.05,808.505 1067.75,819.808 1053.86,819.808Z" style="fill:rgb(3,4,4);fill-rule:nonzero;"/>
    </g>
</svg>
