<?xml version="1.0" encoding="UTF-8" standalone="no"?>
<!DOCTYPE svg PUBLIC "-//W3C//DTD SVG 1.1//EN" "http://www.w3.org/Graphics/SVG/1.1/DTD/svg11.dtd">
<svg width="100%" height="100%" viewBox="0 0 8000 1042" version="1.1" xmlns="http://www.w3.org/2000/svg" xmlns:xlink="http://www.w3.org/1999/xlink" xml:space="preserve" xmlns:serif="http://www.serif.com/" style="fill-rule:evenodd;clip-rule:evenodd;stroke-linecap:round;stroke-linejoin:round;stroke-miterlimit:2;">
    <g transform="matrix(4.16667,0,0,4.16667,0,0)">
        <path d="M991.298,128.308C979.293,128.308 969.526,118.541 969.526,106.536C969.526,94.532 979.293,84.766 991.298,84.766C1003.3,84.766 1013.07,94.532 1013.07,106.536C1013.07,118.541 1003.3,128.308 991.298,128.308ZM930.21,128.308C918.205,128.308 908.438,118.541 908.438,106.536C908.438,94.532 918.205,84.766 930.21,84.766C942.215,84.766 951.981,94.532 951.981,106.536C951.981,118.541 942.215,128.308 930.21,128.308ZM991.298,81.013C977.902,81.013 966.893,91.388 965.861,104.522C965.712,104.484 965.559,104.458 965.398,104.458L955.659,104.458C955.653,104.458 955.648,104.46 955.642,104.46C954.581,91.355 943.584,81.013 930.21,81.013C916.136,81.013 904.687,92.463 904.687,106.536C904.687,120.61 916.136,132.06 930.21,132.06C943.721,132.06 954.807,121.506 955.673,108.21L965.398,108.21C965.548,108.21 965.691,108.188 965.831,108.155C966.669,121.477 977.769,132.06 991.298,132.06C1005.37,132.06 1016.82,120.61 1016.82,106.536C1016.82,92.463 1005.37,81.013 991.298,81.013Z" style="fill:rgb(3,4,4);fill-rule:nonzero;"/>
        <path d="M1022.17,102.433C1021.97,102.433 1021.78,102.399 1021.59,102.328C1020.98,102.098 1020.57,101.53 1020.54,100.882C1020.54,100.815 1020.21,94.101 1018.34,87.369C1015.38,76.754 1010.96,74.181 1007.77,73.891C1001.43,73.314 995.808,74.327 988.693,75.611C981.635,76.883 973.634,78.326 962.631,78.621C956.74,78.781 950.206,77.431 943.29,76.002C931.538,73.575 919.386,71.066 911.414,76.741C906.395,80.315 903.331,86.842 902.045,96.696C901.947,97.451 901.337,98.036 900.579,98.105C899.824,98.175 899.116,97.706 898.884,96.981C898.773,96.631 896.133,88.298 894.874,77.819C893.158,63.543 894.821,52.716 899.816,45.639C903.81,39.981 909.859,36.886 917.808,36.432C919.071,34.524 922.836,29.704 930.711,25.783C936.401,22.95 943.099,21.157 950.619,20.452C959.933,19.58 970.552,20.384 982.183,22.843C994.991,25.55 1005.75,30.806 1014.17,38.463C1021.46,45.098 1026.81,53.479 1029.64,62.699C1031.89,70.064 1032.48,77.692 1031.32,84.757C1030.17,91.775 1027.41,97.715 1023.33,101.936C1023.02,102.26 1022.6,102.433 1022.17,102.433Z" style="fill:rgb(3,4,4);fill-rule:nonzero;"/>
        <path d="M1055.87,134.871C1055.87,134.871 1055.87,123.962 1044.96,123.962L881.169,123.962C881.169,123.962 870.259,123.962 870.259,134.871L870.259,214.982C870.259,214.982 870.259,225.891 881.169,225.891L1044.96,225.891C1044.96,225.891 1055.87,225.891 1055.87,214.982L1055.87,134.871Z" style="fill:white;fill-rule:nonzero;"/>
        <path d="M881.169,125.712C881.152,125.712 878.752,125.744 876.451,126.929C873.587,128.405 872.136,131.035 872.136,134.746L872.136,214.856C872.136,214.874 872.167,217.273 873.353,219.575C874.829,222.438 877.458,223.89 881.169,223.89L1044.96,223.89C1044.97,223.89 1047.37,223.858 1049.68,222.673C1052.54,221.197 1053.99,218.567 1053.99,214.856L1053.99,134.751C1053.99,134.669 1053.95,132.3 1052.77,130.027C1051.3,127.164 1048.67,125.712 1044.96,125.712L881.169,125.712ZM1044.96,227.642L881.169,227.642C874.575,227.642 871.426,224.112 869.945,221.15C868.401,218.062 868.383,214.986 868.383,214.856L868.383,134.746C868.383,128.151 871.914,125.002 874.875,123.521C877.963,121.977 881.04,121.96 881.169,121.96L1044.96,121.96C1051.55,121.96 1054.7,125.49 1056.18,128.452C1057.73,131.54 1057.74,134.616 1057.74,134.746L1057.74,214.856C1057.74,221.451 1054.21,224.6 1051.25,226.081C1048.16,227.625 1045.09,227.642 1044.96,227.642Z" style="fill:rgb(3,4,4);fill-rule:nonzero;"/>
        <path d="M889.573,139.743L889.573,186.985L900.102,186.985C907.795,186.985 911.979,182.801 911.979,175.04L911.979,173.42C911.979,167.211 910.09,163.702 905.635,162.351L905.635,162.217C909.415,160.934 910.967,157.83 910.967,152.566L910.967,151.688C910.967,143.928 906.985,139.743 899.562,139.743L889.573,139.743ZM896.727,146.357L899.292,146.357C902.396,146.357 903.813,148.111 903.813,151.959L903.813,153.511C903.813,157.493 902.396,159.247 898.954,159.247L896.727,159.247L896.727,146.357ZM896.727,165.861L899.494,165.861C903.273,165.861 904.826,167.751 904.826,171.935L904.826,174.567C904.826,178.55 903.273,180.372 899.832,180.372L896.727,180.372L896.727,165.861ZM933.171,186.985L940.729,186.985L934.183,165.457C937.49,163.566 939.245,160.057 939.245,155.063L939.245,151.688C939.245,143.928 935.06,139.743 927.366,139.743L917.041,139.743L917.041,186.985L924.195,186.985L924.195,167.009L927.501,167.009L933.171,186.985ZM924.195,146.357L927.097,146.357C930.539,146.357 932.091,148.179 932.091,152.161L932.091,154.591C932.091,158.572 930.539,160.394 927.097,160.394L924.195,160.394L924.195,146.357ZM968.805,186.985L960.639,139.743L951.528,139.743L943.361,186.985L950.515,186.985L952.067,176.255L959.964,176.255L961.517,186.985L968.805,186.985ZM955.915,149.866L956.117,149.866L959.019,169.775L953.012,169.775L955.915,149.866ZM981.088,139.743L973.934,139.743L973.934,186.985L981.088,186.985L981.088,139.743ZM1012.06,186.985L1012.06,139.743L1005.32,139.743L1005.32,167.886L1005.18,167.886L996.744,139.743L988.78,139.743L988.78,186.985L995.529,186.985L995.529,155.671L995.664,155.671L1005.05,186.985L1012.06,186.985ZM1032.24,165.659L1042.03,139.743L1034.61,139.743L1028.87,156.48L1028.73,156.48L1022.73,139.743L1015.17,139.743L1025.09,165.592L1025.09,186.985L1032.24,186.985L1032.24,165.659Z" style="fill:rgb(47,110,168);fill-rule:nonzero;"/>
        <path d="M899.737,210.783L899.737,207.665L893.058,207.665L893.058,192.548L889.543,192.548L889.543,210.783L899.737,210.783ZM919.565,192.548L916.05,192.548L916.05,210.783L919.565,210.783L919.565,192.548ZM952.891,192.548L949.217,192.548L944.46,206.344L939.643,192.511L935.75,192.511L942.55,210.845L946.091,210.845L952.891,192.548ZM972.765,192.548L969.249,192.548L969.249,210.783L972.765,210.783L972.765,192.548ZM1005.22,210.783L1005.22,192.548L1001.97,192.548L1001.97,204.493L993.774,192.548L990.471,192.548L990.471,210.783L993.722,210.783L993.722,198.23L1002.31,210.783L1005.22,210.783ZM1037.46,209.277L1037.46,200.582L1030.55,200.582L1030.56,203.384L1034.26,203.384L1034.26,207.427C1033.36,207.903 1032.46,208.167 1031.2,208.167C1027.52,208.167 1025.67,205.577 1025.67,201.666C1025.67,197.781 1027.47,195.191 1031.04,195.191C1033.05,195.191 1034.68,195.93 1036.06,196.909L1036.56,193.658C1035.11,192.786 1033.34,192.205 1031.01,192.205C1025.46,192.205 1022.11,196.037 1022.11,201.692C1022.11,207.321 1025.28,211.127 1031.06,211.127C1033.49,211.127 1035.74,210.386 1037.46,209.277Z" style="fill:rgb(3,4,4);fill-rule:nonzero;"/>
        <path d="M881.147,231.381C881.147,231.381 881.147,242.19 891.958,242.19L1034.17,242.19C1034.17,242.19 1044.98,242.19 1044.98,231.381" style="fill:rgb(3,4,4);fill-rule:nonzero;"/>
        <path d="M932.462,110.227C930.772,110.227 929.397,111.602 929.397,113.293C929.397,114.983 930.772,116.358 932.462,116.358C934.152,116.358 935.527,114.983 935.527,113.293C935.527,111.602 934.152,110.227 932.462,110.227Z" style="fill:rgb(3,4,4);fill-rule:nonzero;"/>
        <path d="M989.046,110.227C987.355,110.227 985.98,111.602 985.98,113.293C985.98,114.983 987.355,116.358 989.046,116.358C990.735,116.358 992.11,114.983 992.11,113.293C992.11,111.602 990.735,110.227 989.046,110.227Z" style="fill:rgb(3,4,4);fill-rule:nonzero;"/>
        <path d="M679.113,184.641L680.375,184.641C681.873,184.641 682.549,183.848 682.549,182.116L682.549,181.057C682.549,179.325 681.873,178.532 680.375,178.532L679.113,178.532L679.113,184.641ZM680.552,187.518L679.113,187.518L679.113,196.212L676,196.212L676,175.655L680.493,175.655C683.841,175.655 685.662,177.475 685.662,180.852L685.662,182.321C685.662,184.494 684.898,186.021 683.459,186.844L686.308,196.212L683.019,196.212L680.552,187.518Z" style="fill:rgb(35,31,32);fill-rule:nonzero;"/>
        <path d="M691.683,178.532L691.683,184.347L696.234,184.347L696.234,187.225L691.683,187.225L691.683,193.334L697.321,193.334L697.321,196.212L688.57,196.212L688.57,175.655L697.321,175.655L697.321,178.532L691.683,178.532Z" style="fill:rgb(35,31,32);fill-rule:nonzero;"/>
        <path d="M703.048,188.723L705.662,188.723L704.398,180.059L704.311,180.059L703.048,188.723ZM706.748,196.212L706.073,191.542L702.637,191.542L701.961,196.212L698.848,196.212L702.402,175.655L706.366,175.655L709.92,196.212L706.748,196.212Z" style="fill:rgb(35,31,32);fill-rule:nonzero;"/>
        <path d="M720.463,193.275L720.463,196.212L712.152,196.212L712.152,175.655L715.265,175.655L715.265,193.275L720.463,193.275Z" style="fill:rgb(35,31,32);fill-rule:nonzero;"/>
        <path d="M730.713,184.817L731.976,184.817C733.473,184.817 734.148,184.024 734.148,182.292L734.148,181.057C734.148,179.325 733.473,178.532 731.976,178.532L730.713,178.532L730.713,184.817ZM732.093,175.655C735.44,175.655 737.262,177.475 737.262,180.852L737.262,182.497C737.262,185.875 735.44,187.695 732.093,187.695L730.713,187.695L730.713,196.212L727.6,196.212L727.6,175.655L732.093,175.655Z" style="fill:rgb(35,31,32);fill-rule:nonzero;"/>
        <path d="M742.372,184.641L743.634,184.641C745.132,184.641 745.808,183.848 745.808,182.116L745.808,181.057C745.808,179.325 745.132,178.532 743.634,178.532L742.372,178.532L742.372,184.641ZM743.811,187.518L742.372,187.518L742.372,196.212L739.259,196.212L739.259,175.655L743.752,175.655C747.1,175.655 748.92,177.475 748.92,180.852L748.92,182.321C748.92,184.494 748.157,186.021 746.718,186.844L749.567,196.212L746.277,196.212L743.811,187.518Z" style="fill:rgb(35,31,32);fill-rule:nonzero;"/>
        <path d="M754.589,180.589L754.589,191.278C754.589,192.804 755.265,193.628 756.499,193.628C757.732,193.628 758.407,192.804 758.407,191.278L758.407,180.589C758.407,179.061 757.732,178.239 756.499,178.239C755.265,178.239 754.589,179.061 754.589,180.589ZM761.52,180.559L761.52,191.307C761.52,194.537 759.612,196.505 756.499,196.505C753.386,196.505 751.477,194.537 751.477,191.307L751.477,180.559C751.477,177.328 753.386,175.36 756.499,175.36C759.612,175.36 761.52,177.328 761.52,180.559Z" style="fill:rgb(35,31,32);fill-rule:nonzero;"/>
        <path d="M767.659,193.334L768.892,193.334C770.39,193.334 771.065,192.541 771.065,190.807L771.065,181.057C771.065,179.325 770.39,178.532 768.892,178.532L767.659,178.532L767.659,193.334ZM769.009,175.655C772.357,175.655 774.178,177.475 774.178,180.852L774.178,191.013C774.178,194.391 772.357,196.212 769.009,196.212L764.545,196.212L764.545,175.655L769.009,175.655Z" style="fill:rgb(35,31,32);fill-rule:nonzero;"/>
        <path d="M786.66,191.6C786.66,194.832 784.81,196.505 781.814,196.505C778.877,196.505 777.027,194.832 777.027,191.6L777.027,175.655L780.023,175.655L780.023,191.512C780.023,193.011 780.698,193.568 781.785,193.568C782.872,193.568 783.547,193.011 783.547,191.512L783.547,175.655L786.66,175.655L786.66,191.6Z" style="fill:rgb(35,31,32);fill-rule:nonzero;"/>
        <path d="M799.142,180.294L799.142,182.144L796.146,182.292L796.146,180.617C796.146,178.973 795.529,178.239 794.384,178.239C793.238,178.239 792.622,178.973 792.622,180.324L792.622,191.542C792.622,192.893 793.238,193.628 794.384,193.628C795.529,193.628 796.146,192.893 796.146,191.249L796.146,188.958L799.142,189.105L799.142,191.571C799.142,194.684 797.35,196.505 794.295,196.505C791.271,196.505 789.509,194.684 789.509,191.571L789.509,180.294C789.509,177.181 791.271,175.36 794.295,175.36C797.35,175.36 799.142,177.181 799.142,180.294Z" style="fill:rgb(35,31,32);fill-rule:nonzero;"/>
        <path d="M806.835,178.592L806.835,196.212L803.723,196.212L803.723,178.592L800.404,178.592L800.404,175.655L810.154,175.655L810.154,178.592L806.835,178.592Z" style="fill:rgb(35,31,32);fill-rule:nonzero;"/>
        <rect x="812.122" y="175.655" width="3.113" height="20.557" style="fill:rgb(35,31,32);fill-rule:nonzero;"/>
        <path d="M820.932,196.212L817.466,175.655L820.638,175.655L822.958,191.337L823.017,191.337L825.308,175.655L828.421,175.655L824.955,196.212L820.932,196.212Z" style="fill:rgb(35,31,32);fill-rule:nonzero;"/>
        <rect x="830.653" y="175.655" width="3.113" height="20.557" style="fill:rgb(35,31,32);fill-rule:nonzero;"/>
        <path d="M842.165,178.592L842.165,196.212L839.052,196.212L839.052,178.592L835.733,178.592L835.733,175.655L845.483,175.655L845.483,178.592L842.165,178.592Z" style="fill:rgb(35,31,32);fill-rule:nonzero;"/>
        <path d="M853.972,196.212L850.859,196.212L850.859,186.902L846.542,175.655L849.831,175.655L852.445,182.937L852.503,182.937L855,175.655L858.23,175.655L853.972,186.931L853.972,196.212Z" style="fill:rgb(35,31,32);fill-rule:nonzero;"/>
        <path d="M1072.46,178.816L1072.46,184.408L1076.69,184.408L1076.69,187.176L1072.46,187.176L1072.46,195.817L1069.46,195.817L1069.46,176.05L1077.74,176.05L1077.74,178.816L1072.46,178.816Z" style="fill:rgb(47,110,168);fill-rule:nonzero;"/>
        <path d="M1082.31,180.794L1082.31,191.073C1082.31,192.541 1082.96,193.332 1084.15,193.332C1085.34,193.332 1085.99,192.541 1085.99,191.073L1085.99,180.794C1085.99,179.325 1085.34,178.534 1084.15,178.534C1082.96,178.534 1082.31,179.325 1082.31,180.794ZM1088.98,180.765L1088.98,191.101C1088.98,194.207 1087.14,196.099 1084.15,196.099C1081.16,196.099 1079.32,194.207 1079.32,191.101L1079.32,180.765C1079.32,177.658 1081.16,175.766 1084.15,175.766C1087.14,175.766 1088.98,177.658 1088.98,180.765Z" style="fill:rgb(47,110,168);fill-rule:nonzero;"/>
        <path d="M1094.6,184.69L1095.81,184.69C1097.25,184.69 1097.9,183.928 1097.9,182.262L1097.9,181.245C1097.9,179.579 1097.25,178.816 1095.81,178.816L1094.6,178.816L1094.6,184.69ZM1095.98,187.458L1094.6,187.458L1094.6,195.817L1091.61,195.817L1091.61,176.05L1095.93,176.05C1099.15,176.05 1100.9,177.8 1100.9,181.048L1100.9,182.46C1100.9,184.549 1100.16,186.017 1098.78,186.808L1101.52,195.817L1098.36,195.817L1095.98,187.458Z" style="fill:rgb(47,110,168);fill-rule:nonzero;"/>
        <path d="M1111.35,184.69L1112.56,184.69C1114,184.69 1114.65,183.928 1114.65,182.262L1114.65,181.245C1114.65,179.579 1114,178.816 1112.56,178.816L1111.35,178.816L1111.35,184.69ZM1112.73,187.458L1111.35,187.458L1111.35,195.817L1108.35,195.817L1108.35,176.05L1112.67,176.05C1115.89,176.05 1117.64,177.8 1117.64,181.048L1117.64,182.46C1117.64,184.549 1116.91,186.017 1115.53,186.808L1118.26,195.817L1115.1,195.817L1112.73,187.458Z" style="fill:rgb(47,110,168);fill-rule:nonzero;"/>
        <path d="M1123.43,178.816L1123.43,184.408L1127.81,184.408L1127.81,187.176L1123.43,187.176L1123.43,193.05L1128.86,193.05L1128.86,195.817L1120.44,195.817L1120.44,176.05L1128.86,176.05L1128.86,178.816L1123.43,178.816Z" style="fill:rgb(47,110,168);fill-rule:nonzero;"/>
        <path d="M1134.36,188.616L1136.88,188.616L1135.66,180.285L1135.58,180.285L1134.36,188.616ZM1137.92,195.817L1137.27,191.327L1133.97,191.327L1133.32,195.817L1130.32,195.817L1133.74,176.05L1137.55,176.05L1140.97,195.817L1137.92,195.817Z" style="fill:rgb(47,110,168);fill-rule:nonzero;"/>
        <path d="M1151.11,192.993L1151.11,195.817L1143.12,195.817L1143.12,176.05L1146.11,176.05L1146.11,192.993L1151.11,192.993Z" style="fill:rgb(47,110,168);fill-rule:nonzero;"/>
        <path d="M1160.97,184.859L1162.18,184.859C1163.62,184.859 1164.27,184.097 1164.27,182.431L1164.27,181.245C1164.27,179.579 1163.62,178.816 1162.18,178.816L1160.97,178.816L1160.97,184.859ZM1162.29,176.05C1165.51,176.05 1167.26,177.8 1167.26,181.048L1167.26,182.629C1167.26,185.877 1165.51,187.628 1162.29,187.628L1160.97,187.628L1160.97,195.817L1157.97,195.817L1157.97,176.05L1162.29,176.05Z" style="fill:rgb(47,110,168);fill-rule:nonzero;"/>
        <path d="M1172.46,178.816L1172.46,184.408L1176.84,184.408L1176.84,187.176L1172.46,187.176L1172.46,193.05L1177.88,193.05L1177.88,195.817L1169.47,195.817L1169.47,176.05L1177.88,176.05L1177.88,178.816L1172.46,178.816Z" style="fill:rgb(47,110,168);fill-rule:nonzero;"/>
        <path d="M1183.11,180.794L1183.11,191.073C1183.11,192.541 1183.76,193.332 1184.94,193.332C1186.13,193.332 1186.78,192.541 1186.78,191.073L1186.78,180.794C1186.78,179.325 1186.13,178.534 1184.94,178.534C1183.76,178.534 1183.11,179.325 1183.11,180.794ZM1189.77,180.765L1189.77,191.101C1189.77,194.207 1187.94,196.099 1184.94,196.099C1181.95,196.099 1180.11,194.207 1180.11,191.101L1180.11,180.765C1180.11,177.658 1181.95,175.766 1184.94,175.766C1187.94,175.766 1189.77,177.658 1189.77,180.765Z" style="fill:rgb(47,110,168);fill-rule:nonzero;"/>
        <path d="M1195.67,184.859L1196.89,184.859C1198.33,184.859 1198.98,184.097 1198.98,182.431L1198.98,181.245C1198.98,179.579 1198.33,178.816 1196.89,178.816L1195.67,178.816L1195.67,184.859ZM1197,176.05C1200.22,176.05 1201.97,177.8 1201.97,181.048L1201.97,182.629C1201.97,185.877 1200.22,187.628 1197,187.628L1195.67,187.628L1195.67,195.817L1192.68,195.817L1192.68,176.05L1197,176.05Z" style="fill:rgb(47,110,168);fill-rule:nonzero;"/>
        <path d="M1212.17,192.993L1212.17,195.817L1204.17,195.817L1204.17,176.05L1207.17,176.05L1207.17,192.993L1212.17,192.993Z" style="fill:rgb(47,110,168);fill-rule:nonzero;"/>
        <path d="M1217.08,178.816L1217.08,184.408L1221.46,184.408L1221.46,187.176L1217.08,187.176L1217.08,193.05L1222.5,193.05L1222.5,195.817L1214.09,195.817L1214.09,176.05L1222.5,176.05L1222.5,178.816L1217.08,178.816Z" style="fill:rgb(47,110,168);fill-rule:nonzero;"/>
        <path d="M1917.67,208.834L1056.17,208.834L1917.67,208.834Z" style="fill:none;stroke:rgb(3,4,4);stroke-width:4px;"/>
        <path d="M869.667,208.834L2.333,208.834L869.667,208.834Z" style="fill:none;stroke:rgb(3,4,4);stroke-width:4px;"/>
    </g>
</svg>
